<svg width="682" height="334" viewBox="0 0 682 334" fill="none" xmlns="http://www.w3.org/2000/svg">
<g filter="url(#filter0_b)">
<rect x="72.0001" width="610" height="334" rx="16" fill="#35068C"/>
</g>
<path d="M294.004 54H295.849V50.5597H297.798C300.149 50.5597 301.412 49.1477 301.412 47.1889C301.412 45.245 300.164 43.8182 297.822 43.8182H294.004V54ZM295.849 49.0433V45.3594H297.539C298.921 45.3594 299.533 46.1051 299.533 47.1889C299.533 48.2727 298.921 49.0433 297.549 49.0433H295.849ZM302.934 54H304.734V49.5107C304.734 48.5412 305.465 47.8551 306.454 47.8551C306.758 47.8551 307.135 47.9098 307.29 47.9595V46.304C307.126 46.2741 306.842 46.2543 306.643 46.2543C305.768 46.2543 305.037 46.7514 304.759 47.6364H304.68V46.3636H302.934V54ZM308.485 54H310.285V46.3636H308.485V54ZM309.39 45.2798C309.962 45.2798 310.429 44.8423 310.429 44.3054C310.429 43.7635 309.962 43.326 309.39 43.326C308.813 43.326 308.346 43.7635 308.346 44.3054C308.346 44.8423 308.813 45.2798 309.39 45.2798ZM315.467 54.1491C317.386 54.1491 318.609 53.0107 318.738 51.3899H317.018C316.864 52.2102 316.272 52.6825 315.482 52.6825C314.358 52.6825 313.632 51.7429 313.632 50.1818C313.632 48.6406 314.373 47.7159 315.482 47.7159C316.347 47.7159 316.879 48.2727 317.018 49.0085H318.738C318.614 47.353 317.321 46.2642 315.457 46.2642C313.219 46.2642 311.808 47.88 311.808 50.2116C311.808 52.5234 313.185 54.1491 315.467 54.1491ZM323.596 54.1491C325.376 54.1491 326.599 53.2791 326.917 51.9517L325.237 51.7628C324.993 52.4091 324.397 52.7472 323.621 52.7472C322.458 52.7472 321.687 51.9815 321.672 50.674H326.992V50.1222C326.992 47.4425 325.381 46.2642 323.502 46.2642C321.314 46.2642 319.888 47.87 319.888 50.2266C319.888 52.6229 321.295 54.1491 323.596 54.1491ZM321.677 49.4609C321.732 48.4865 322.453 47.6662 323.527 47.6662C324.561 47.6662 325.257 48.4219 325.267 49.4609H321.677Z" fill="white"/>
<path d="M423.72 47.2536C423.406 44.9915 421.666 43.679 419.409 43.679C416.749 43.679 414.746 45.6179 414.746 48.9091C414.746 52.1953 416.725 54.1392 419.409 54.1392C421.83 54.1392 423.436 52.5732 423.72 50.6293L421.86 50.6193C421.627 51.8125 420.652 52.4837 419.434 52.4837C417.783 52.4837 416.6 51.2457 416.6 48.9091C416.6 46.6122 417.774 45.3345 419.439 45.3345C420.677 45.3345 421.646 46.0355 421.86 47.2536H423.72ZM427.129 49.5256C427.129 48.4219 427.815 47.7855 428.779 47.7855C429.724 47.7855 430.281 48.3871 430.281 49.4162V54H432.081V49.1378C432.081 47.2933 431.036 46.2642 429.451 46.2642C428.277 46.2642 427.532 46.7962 427.179 47.6612H427.089V43.8182H425.329V54H427.129V49.5256ZM436.112 54.1541C437.311 54.1541 438.027 53.5923 438.355 52.951H438.414V54H440.144V48.8892C440.144 46.8707 438.499 46.2642 437.042 46.2642C435.436 46.2642 434.203 46.9801 433.806 48.3722L435.486 48.6108C435.665 48.0888 436.172 47.6413 437.052 47.6413C437.887 47.6413 438.345 48.0689 438.345 48.8196V48.8494C438.345 49.3665 437.803 49.3913 436.456 49.5355C434.974 49.6946 433.557 50.1371 433.557 51.8572C433.557 53.3587 434.656 54.1541 436.112 54.1541ZM436.58 52.8317C435.829 52.8317 435.292 52.4886 435.292 51.8274C435.292 51.1364 435.894 50.848 436.699 50.7337C437.171 50.669 438.116 50.5497 438.35 50.3608V51.2607C438.35 52.1108 437.664 52.8317 436.58 52.8317ZM443.754 49.5256C443.754 48.4219 444.42 47.7855 445.37 47.7855C446.299 47.7855 446.856 48.397 446.856 49.4162V54H448.656V49.1378C448.661 47.3082 447.617 46.2642 446.041 46.2642C444.897 46.2642 444.112 46.8111 443.764 47.6612H443.674V46.3636H441.954V54H443.754V49.5256ZM453.806 57.0227C455.87 57.0227 457.391 56.0781 457.391 54.1243V46.3636H455.616V47.6264H455.517C455.243 47.0746 454.671 46.2642 453.324 46.2642C451.559 46.2642 450.172 47.6463 450.172 50.157C450.172 52.6477 451.559 53.8906 453.319 53.8906C454.627 53.8906 455.238 53.1896 455.517 52.6278H455.606V54.0746C455.606 55.1982 454.86 55.6605 453.836 55.6605C452.752 55.6605 452.275 55.1484 452.056 54.701L450.436 55.0938C450.764 56.1626 451.862 57.0227 453.806 57.0227ZM453.821 52.4787C452.633 52.4787 452.007 51.554 452.007 50.147C452.007 48.7599 452.623 47.7408 453.821 47.7408C454.98 47.7408 455.616 48.7003 455.616 50.147C455.616 51.6037 454.97 52.4787 453.821 52.4787ZM462.616 54.1491C464.396 54.1491 465.619 53.2791 465.937 51.9517L464.257 51.7628C464.013 52.4091 463.416 52.7472 462.641 52.7472C461.478 52.7472 460.707 51.9815 460.692 50.674H466.012V50.1222C466.012 47.4425 464.401 46.2642 462.522 46.2642C460.334 46.2642 458.907 47.87 458.907 50.2266C458.907 52.6229 460.314 54.1491 462.616 54.1491ZM460.697 49.4609C460.752 48.4865 461.473 47.6662 462.546 47.6662C463.581 47.6662 464.277 48.4219 464.286 49.4609H460.697Z" fill="white"/>
<path d="M557.367 43.8182H555.343L558.928 54H561.205L564.794 43.8182H562.766L560.121 51.8324H560.017L557.367 43.8182ZM568.566 54.1491C570.804 54.1491 572.226 52.5732 572.226 50.2116C572.226 47.8452 570.804 46.2642 568.566 46.2642C566.329 46.2642 564.907 47.8452 564.907 50.2116C564.907 52.5732 566.329 54.1491 568.566 54.1491ZM568.576 52.7074C567.338 52.7074 566.732 51.6037 566.732 50.2067C566.732 48.8097 567.338 47.6911 568.576 47.6911C569.794 47.6911 570.401 48.8097 570.401 50.2067C570.401 51.6037 569.794 52.7074 568.576 52.7074ZM575.553 43.8182H573.753V54H575.553V43.8182ZM582.271 50.7884C582.271 51.9517 581.44 52.5284 580.645 52.5284C579.78 52.5284 579.203 51.9169 579.203 50.9474V46.3636H577.403V51.2259C577.403 53.0604 578.447 54.0994 579.949 54.0994C581.092 54.0994 581.898 53.4979 582.246 52.6428H582.325V54H584.07V46.3636H582.271V50.7884ZM585.921 54H587.721V49.3565C587.721 48.4169 588.347 47.7805 589.123 47.7805C589.883 47.7805 590.405 48.2926 590.405 49.0781V54H592.17V49.2372C592.17 48.3771 592.682 47.7805 593.552 47.7805C594.278 47.7805 594.855 48.2081 594.855 49.1527V54H596.66V48.8743C596.66 47.169 595.675 46.2642 594.273 46.2642C593.165 46.2642 592.319 46.8111 591.981 47.6612H591.902C591.608 46.7962 590.868 46.2642 589.839 46.2642C588.814 46.2642 588.049 46.7912 587.731 47.6612H587.641V46.3636H585.921V54ZM601.866 54.1491C603.646 54.1491 604.869 53.2791 605.187 51.9517L603.507 51.7628C603.263 52.4091 602.667 52.7472 601.891 52.7472C600.728 52.7472 599.957 51.9815 599.942 50.674H605.262V50.1222C605.262 47.4425 603.651 46.2642 601.772 46.2642C599.584 46.2642 598.157 47.87 598.157 50.2266C598.157 52.6229 599.564 54.1491 601.866 54.1491ZM599.947 49.4609C600.002 48.4865 600.723 47.6662 601.797 47.6662C602.831 47.6662 603.527 48.4219 603.537 49.4609H599.947ZM610.704 49.8487C610.704 52.3295 611.366 54.3928 612.673 56.1626H614.368C613.359 54.8501 612.579 52.2053 612.579 49.8487C612.579 47.4872 613.359 44.8423 614.368 43.5298H612.673C611.366 45.2997 610.704 47.3679 610.704 49.8487ZM615.747 54H622.727V52.4588H618.292V52.3892L620.047 50.6044C622.026 48.7053 622.573 47.7805 622.573 46.6321C622.573 44.9268 621.186 43.679 619.137 43.679C617.119 43.679 615.687 44.9318 615.687 46.8658H617.442C617.442 45.8267 618.098 45.1754 619.113 45.1754C620.082 45.1754 620.803 45.767 620.803 46.7266C620.803 47.5767 620.286 48.1832 619.282 49.2024L615.747 52.6676V54ZM624.039 52.1108H628.897V54H630.657V52.1108H631.959V50.5945H630.657V43.8182H628.36L624.039 50.6442V52.1108ZM628.917 50.5945H625.929V50.5149L628.837 45.9062H628.917V50.5945ZM635.367 49.5256C635.367 48.4219 636.053 47.7855 637.018 47.7855C637.962 47.7855 638.519 48.3871 638.519 49.4162V54H640.319V49.1378C640.319 47.2933 639.275 46.2642 637.689 46.2642C636.516 46.2642 635.77 46.7962 635.417 47.6612H635.327V43.8182H633.567V54H635.367V49.5256ZM645.365 49.8487C645.365 47.3679 644.704 45.3047 643.396 43.5348H641.701C642.71 44.8473 643.491 47.4922 643.491 49.8487C643.491 52.2102 642.71 54.8551 641.701 56.1676H643.396C644.704 54.3977 645.365 52.3295 645.365 49.8487Z" fill="white"/>
<path d="M169.409 116H173.614C176.364 116 177.5 114.659 177.5 112.909C177.5 111.068 176.227 110.068 175.159 110V109.886C176.159 109.614 177.045 108.955 177.045 107.455C177.045 105.75 175.909 104.364 173.477 104.364H169.409V116ZM170.818 114.75V110.705H173.682C175.205 110.705 176.159 111.727 176.159 112.909C176.159 113.932 175.455 114.75 173.614 114.75H170.818ZM170.818 109.477V105.614H173.477C175.023 105.614 175.705 106.432 175.705 107.455C175.705 108.682 174.705 109.477 173.432 109.477H170.818ZM179.794 116H181.134V107.273H179.794V116ZM180.475 105.818C180.998 105.818 181.43 105.409 181.43 104.909C181.43 104.409 180.998 104 180.475 104C179.953 104 179.521 104.409 179.521 104.909C179.521 105.409 179.953 105.818 180.475 105.818ZM187.546 107.273H185.682V105.182H184.341V107.273H183.023V108.409H184.341V113.864C184.341 115.386 185.569 116.114 186.705 116.114C187.205 116.114 187.523 116.023 187.705 115.955L187.432 114.75C187.319 114.773 187.137 114.818 186.841 114.818C186.25 114.818 185.682 114.636 185.682 113.5V108.409H187.546V107.273ZM193.175 116.182C195.106 116.182 196.379 115 196.606 113.455H195.266C195.016 114.409 194.22 114.977 193.175 114.977C191.584 114.977 190.561 113.659 190.561 111.636C190.561 109.659 191.606 108.364 193.175 108.364C194.356 108.364 195.061 109.091 195.266 109.886H196.606C196.379 108.25 194.993 107.159 193.152 107.159C190.788 107.159 189.22 109.023 189.22 111.682C189.22 114.296 190.72 116.182 193.175 116.182ZM202.272 116.182C204.636 116.182 206.227 114.386 206.227 111.682C206.227 108.955 204.636 107.159 202.272 107.159C199.908 107.159 198.318 108.955 198.318 111.682C198.318 114.386 199.908 116.182 202.272 116.182ZM202.272 114.977C200.477 114.977 199.658 113.432 199.658 111.682C199.658 109.932 200.477 108.364 202.272 108.364C204.068 108.364 204.886 109.932 204.886 111.682C204.886 113.432 204.068 114.977 202.272 114.977ZM208.434 116H209.774V107.273H208.434V116ZM209.115 105.818C209.638 105.818 210.07 105.409 210.07 104.909C210.07 104.409 209.638 104 209.115 104C208.593 104 208.161 104.409 208.161 104.909C208.161 105.409 208.593 105.818 209.115 105.818ZM213.731 110.75C213.731 109.227 214.674 108.364 215.959 108.364C217.203 108.364 217.959 109.176 217.959 110.546V116H219.299V110.455C219.299 108.227 218.112 107.159 216.345 107.159C215.027 107.159 214.209 107.75 213.799 108.636H213.686V107.273H212.39V116H213.731V110.75Z" fill="#F2F2F2"/>
<path d="M169.264 92.0001H175.479C178.746 92.0001 180.486 90.2956 180.486 87.9802C180.486 85.8282 178.945 84.5285 177.29 84.4504V84.3084C178.803 83.9675 179.918 82.895 179.918 81.1834C179.918 79.003 178.298 77.4547 175.088 77.4547H169.264V92.0001ZM172.339 89.4859V85.6223H174.918C176.395 85.6223 177.311 86.4746 177.311 87.6748C177.311 88.7686 176.565 89.4859 174.847 89.4859H172.339ZM172.339 83.5413V79.9405H174.676C176.04 79.9405 176.814 80.6436 176.814 81.6947C176.814 82.8453 175.876 83.5413 174.619 83.5413H172.339ZM181.933 79.9902H186.386V92.0001H189.426V79.9902H193.879V77.4547H181.933V79.9902ZM208.036 82.547C207.631 79.1876 205.088 77.2558 201.722 77.2558C197.879 77.2558 194.946 79.9689 194.946 84.7274C194.946 89.4717 197.83 92.199 201.722 92.199C205.45 92.199 207.702 89.7203 208.036 87.0427L204.925 87.0285C204.634 88.5839 203.412 89.4788 201.771 89.4788C199.562 89.4788 198.064 87.8382 198.064 84.7274C198.064 81.7018 199.541 79.976 201.793 79.976C203.476 79.976 204.69 80.949 204.925 82.547H208.036Z" fill="white"/>
<circle cx="132" cy="96.0001" r="20" fill="#C4C4C4"/>
<g clip-path="url(#clip0)">
<path d="M151.402 100.837C148.73 111.557 137.869 118.073 127.164 115.401C116.444 112.729 109.927 101.868 112.599 91.1637C115.272 80.4437 126.117 73.9271 136.837 76.5994C147.542 79.256 154.074 90.1166 151.402 100.837Z" fill="url(#paint0_linear)"/>
<path d="M141.522 93.5081C141.913 90.8518 139.897 89.4143 137.116 88.4612L138.022 84.8518L135.835 84.3049L134.96 87.8206C134.382 87.6799 133.788 87.5393 133.194 87.4143L134.069 83.8831L131.882 83.3362L130.991 86.9299C130.507 86.8206 130.038 86.7112 129.585 86.6018V86.5862L126.554 85.8362L125.975 88.1799C125.975 88.1799 127.6 88.5549 127.569 88.5706C128.46 88.7893 128.616 89.3831 128.585 89.8518L127.554 93.9612C127.616 93.9768 127.694 93.9924 127.788 94.0393C127.71 94.0237 127.632 94.0081 127.554 93.9768L126.116 99.7268C126.007 99.9924 125.725 100.399 125.116 100.242C125.132 100.274 123.522 99.8518 123.522 99.8518L122.429 102.367L125.288 103.086C125.819 103.227 126.335 103.352 126.85 103.492L125.944 107.133L128.132 107.68L129.038 104.071C129.632 104.227 130.225 104.383 130.788 104.524L129.897 108.117L132.085 108.664L132.991 105.024C136.741 105.727 139.554 105.446 140.725 102.055C141.679 99.3362 140.679 97.7581 138.71 96.7268C140.163 96.3987 141.241 95.4456 141.522 93.5081ZM136.507 100.539C135.835 103.258 131.241 101.789 129.757 101.414L130.96 96.5862C132.444 96.9612 137.225 97.6956 136.507 100.539ZM137.194 93.4612C136.569 95.9456 132.757 94.6799 131.522 94.3674L132.616 89.9924C133.85 90.3049 137.835 90.8831 137.194 93.4612Z" fill="white"/>
</g>
<path d="M297.636 103.455H298.568V102.188C300.955 102.023 302.295 100.614 302.295 98.8412C302.295 96.6593 300.227 95.9548 299.023 95.6366L298.568 95.5116V91.4718C299.773 91.5912 300.648 92.2389 300.773 93.273H302.136C302.08 91.6139 300.625 90.3525 298.568 90.2162V88.9093H297.636V90.2332C295.688 90.4321 294.227 91.6707 294.227 93.4548C294.227 95.023 295.364 95.9548 297.182 96.4775L297.636 96.6082V100.909C296.443 100.784 295.466 100.171 295.364 99.0002H293.909C294.04 100.79 295.403 102.04 297.636 102.188V103.455ZM298.568 100.909V96.8752L298.614 96.8866C299.841 97.2275 300.932 97.6593 300.932 98.8184C300.932 99.9605 299.943 100.756 298.568 100.909ZM297.636 95.2616C296.773 95.0173 295.591 94.54 295.591 93.3866C295.591 92.4037 296.386 91.6537 297.636 91.4889V95.2616ZM308.271 102.159C310.624 102.188 312.158 100.415 312.158 98.2502C312.158 96.0002 310.493 94.3866 308.499 94.3866C307.3 94.3866 306.271 94.9718 305.635 95.9321H305.544C305.55 93.0968 306.652 91.4548 308.453 91.4548C309.68 91.4548 310.419 92.2275 310.68 93.273H312.067C311.783 91.4662 310.408 90.2048 308.453 90.2048C305.834 90.2048 304.226 92.523 304.226 96.6366C304.226 100.938 306.362 102.137 308.271 102.159ZM308.271 100.909C306.811 100.909 305.743 99.665 305.749 98.273C305.754 96.8809 306.874 95.6366 308.317 95.6366C309.743 95.6366 310.794 96.8071 310.794 98.2502C310.794 99.7275 309.697 100.909 308.271 100.909ZM314.756 102H316.233L321.415 91.6821V90.3639H313.96V91.6139H319.96V91.7048L314.756 102ZM327.013 102.159C329.229 102.159 330.854 100.523 330.854 98.2957C330.854 96.04 329.286 94.3866 327.149 94.3866C326.365 94.3866 325.604 94.665 325.126 95.0457H325.058L325.467 91.6139H330.331V90.3639H324.286L323.581 96.0912L324.899 96.2502C325.382 95.9037 326.206 95.6537 326.922 95.6593C328.405 95.6707 329.49 96.7957 329.49 98.3184C329.49 99.8127 328.445 100.909 327.013 100.909C325.82 100.909 324.871 100.142 324.763 99.0912H323.399C323.484 100.864 325.013 102.159 327.013 102.159ZM336.906 102.159C339.474 102.159 340.952 99.9832 340.952 96.1821C340.952 92.4093 339.452 90.2048 336.906 90.2048C334.361 90.2048 332.861 92.4093 332.861 96.1821C332.861 99.9832 334.338 102.159 336.906 102.159ZM336.906 100.909C335.213 100.909 334.224 99.2105 334.224 96.1821C334.224 93.1593 335.224 91.4321 336.906 91.4321C338.588 91.4321 339.588 93.1593 339.588 96.1821C339.588 99.2105 338.599 100.909 336.906 100.909Z" fill="#F2F2F2"/>
<circle opacity="0.1" cx="422" cy="97.0002" r="8" fill="#8FFFBE"/>
<path d="M425.388 98.7289L422.181 95.0101C422.089 94.9037 421.912 94.9037 421.819 95.0101L418.612 98.7289C418.493 98.8676 418.601 99.0707 418.793 99.0707H425.207C425.399 99.0707 425.507 98.8676 425.388 98.7289Z" fill="#8FFFBE"/>
<path d="M442.636 99.9548H443.909V96.8412H447.023V95.5684H443.909V92.4548H442.636V95.5684H439.523V96.8412H442.636V99.9548ZM449.756 102H451.233L456.415 91.6821V90.3639H448.96V91.6139H454.96V91.7048L449.756 102ZM457.533 102.091C458.095 102.091 458.555 101.631 458.555 101.068C458.555 100.506 458.095 100.046 457.533 100.046C456.97 100.046 456.51 100.506 456.51 101.068C456.51 101.631 456.97 102.091 457.533 102.091ZM464.433 102.159C466.689 102.159 468.365 100.745 468.365 98.8412C468.365 97.3639 467.49 96.29 466.024 96.0457V95.9548C467.2 95.5968 467.933 94.6309 467.933 93.3184C467.933 91.6707 466.632 90.2048 464.479 90.2048C462.467 90.2048 460.797 91.4434 460.729 93.273H462.092C462.144 92.1139 463.246 91.4321 464.456 91.4321C465.74 91.4321 466.57 92.2105 466.57 93.3866C466.57 94.6139 465.609 95.4093 464.229 95.4093H463.297V96.6593H464.229C465.996 96.6593 466.979 97.5571 466.979 98.8412C466.979 100.074 465.905 100.909 464.411 100.909C463.064 100.909 461.996 100.216 461.911 99.0912H460.479C460.564 100.921 462.178 102.159 464.433 102.159ZM476.621 99.8184C476.621 101.091 477.416 102.159 478.894 102.159C480.348 102.159 481.144 101.091 481.144 99.8184V99.2048C481.144 97.9321 480.371 96.8639 478.894 96.8639C477.439 96.8639 476.621 97.9321 476.621 99.2048V99.8184ZM470.825 93.1593C470.825 94.4321 471.621 95.5002 473.098 95.5002C474.553 95.5002 475.348 94.4321 475.348 93.1593V92.5457C475.348 91.273 474.575 90.2048 473.098 90.2048C471.644 90.2048 470.825 91.273 470.825 92.5457V93.1593ZM471.257 102H472.553L480.553 90.3639H479.257L471.257 102ZM477.78 99.2048C477.78 98.5002 478.098 97.8412 478.894 97.8412C479.712 97.8412 479.984 98.5002 479.984 99.2048V99.8184C479.984 100.523 479.689 101.182 478.894 101.182C478.075 101.182 477.78 100.523 477.78 99.8184V99.2048ZM471.984 92.5457C471.984 91.8412 472.303 91.1821 473.098 91.1821C473.916 91.1821 474.189 91.8412 474.189 92.5457V93.1593C474.189 93.8639 473.894 94.523 473.098 94.523C472.28 94.523 471.984 93.8639 471.984 93.1593V92.5457Z" fill="#8FFFBE"/>
<path d="M559.637 103.455H560.568V102.188C562.955 102.023 564.296 100.614 564.296 98.8412C564.296 96.6593 562.227 95.9548 561.023 95.6366L560.568 95.5116V91.4718C561.773 91.5912 562.648 92.2389 562.773 93.273H564.137C564.08 91.6139 562.625 90.3525 560.568 90.2162V88.9093H559.637V90.2332C557.688 90.4321 556.227 91.6707 556.227 93.4548C556.227 95.023 557.364 95.9548 559.182 96.4775L559.637 96.6082V100.909C558.443 100.784 557.466 100.171 557.364 99.0002H555.909C556.04 100.79 557.404 102.04 559.637 102.188V103.455ZM560.568 100.909V96.8752L560.614 96.8866C561.841 97.2275 562.932 97.6593 562.932 98.8184C562.932 99.9605 561.943 100.756 560.568 100.909ZM559.637 95.2616C558.773 95.0173 557.591 94.54 557.591 93.3866C557.591 92.4037 558.387 91.6537 559.637 91.4889V95.2616ZM570.34 102.159C572.595 102.159 574.271 100.745 574.271 98.8412C574.271 97.3639 573.396 96.29 571.931 96.0457V95.9548C573.107 95.5968 573.84 94.6309 573.84 93.3184C573.84 91.6707 572.539 90.2048 570.385 90.2048C568.374 90.2048 566.703 91.4434 566.635 93.273H567.999C568.05 92.1139 569.152 91.4321 570.362 91.4321C571.646 91.4321 572.476 92.2105 572.476 93.3866C572.476 94.6139 571.516 95.4093 570.135 95.4093H569.203V96.6593H570.135C571.902 96.6593 572.885 97.5571 572.885 98.8412C572.885 100.074 571.811 100.909 570.317 100.909C568.97 100.909 567.902 100.216 567.817 99.0912H566.385C566.47 100.921 568.084 102.159 570.34 102.159ZM576.323 99.6139H581.8V102H583.141V99.6139H584.732V98.3639H583.141V90.3639H581.436L576.323 98.4548V99.6139ZM581.8 98.3639H577.845V98.273L581.709 92.1593H581.8V98.3639ZM586.861 102H594.202V100.75H588.793V100.659L591.406 97.8639C593.406 95.7218 593.997 94.7218 593.997 93.4321C593.997 91.6366 592.543 90.2048 590.497 90.2048C588.458 90.2048 586.906 91.5912 586.906 93.6366H588.247C588.247 92.3127 589.105 91.4321 590.452 91.4321C591.713 91.4321 592.679 92.2048 592.679 93.4321C592.679 94.5059 592.048 95.3014 590.702 96.773L586.861 100.978V102ZM600.344 102.159C602.912 102.159 604.389 99.9832 604.389 96.1821C604.389 92.4093 602.889 90.2048 600.344 90.2048C597.798 90.2048 596.298 92.4093 596.298 96.1821C596.298 99.9832 597.776 102.159 600.344 102.159ZM600.344 100.909C598.651 100.909 597.662 99.2105 597.662 96.1821C597.662 93.1593 598.662 91.4321 600.344 91.4321C602.026 91.4321 603.026 93.1593 603.026 96.1821C603.026 99.2105 602.037 100.909 600.344 100.909ZM606.548 102H613.889V100.75H608.48V100.659L611.094 97.8639C613.094 95.7218 613.685 94.7218 613.685 93.4321C613.685 91.6366 612.23 90.2048 610.185 90.2048C608.145 90.2048 606.594 91.5912 606.594 93.6366H607.935C607.935 92.3127 608.793 91.4321 610.139 91.4321C611.401 91.4321 612.367 92.2048 612.367 93.4321C612.367 94.5059 611.736 95.3014 610.389 96.773L606.548 100.978V102ZM620.327 90.3639H618.918L616.009 92.2957V93.7275L618.85 91.8412H618.918V102H620.327V90.3639ZM623.401 99.6139H628.878V102H630.219V99.6139H631.81V98.3639H630.219V90.3639H628.514L623.401 98.4548V99.6139ZM628.878 98.3639H624.923V98.273L628.787 92.1593H628.878V98.3639Z" fill="#F2F2F2"/>
<rect x="-6.10352e-05" y="144" width="610" height="79" rx="16" fill="#4610AD"/>
<path d="M97.409 203H104.523V201.75H98.8181V197.796H104.068V196.546H98.8181V192.614H104.432V191.364H97.409V203ZM110.745 194.273H108.882V192.182H107.541V194.273H106.222V195.409H107.541V200.864C107.541 202.386 108.768 203.114 109.904 203.114C110.404 203.114 110.722 203.023 110.904 202.955L110.632 201.75C110.518 201.773 110.336 201.818 110.041 201.818C109.45 201.818 108.882 201.636 108.882 200.5V195.409H110.745V194.273ZM114.451 197.75C114.451 196.227 115.422 195.364 116.746 195.364C118.007 195.364 118.769 196.159 118.769 197.546V203H120.11V197.455C120.11 195.21 118.917 194.159 117.132 194.159C115.757 194.159 114.973 194.733 114.564 195.636H114.451V191.364H113.11V203H114.451V197.75ZM126.382 203.182C128.155 203.182 129.45 202.296 129.859 200.977L128.564 200.614C128.223 201.523 127.433 201.977 126.382 201.977C124.808 201.977 123.723 200.96 123.66 199.091H129.996V198.523C129.996 195.273 128.064 194.159 126.246 194.159C123.882 194.159 122.314 196.023 122.314 198.705C122.314 201.386 123.859 203.182 126.382 203.182ZM123.66 197.932C123.751 196.574 124.711 195.364 126.246 195.364C127.7 195.364 128.632 196.455 128.632 197.932H123.66ZM132.195 203H133.536V197.477C133.536 196.296 134.468 195.432 135.741 195.432C136.099 195.432 136.468 195.5 136.559 195.523V194.159C136.406 194.148 136.053 194.136 135.854 194.136C134.809 194.136 133.9 194.727 133.582 195.591H133.491V194.273H132.195V203ZM141.702 203.182C143.475 203.182 144.77 202.296 145.179 200.977L143.884 200.614C143.543 201.523 142.753 201.977 141.702 201.977C140.128 201.977 139.043 200.96 138.98 199.091H145.316V198.523C145.316 195.273 143.384 194.159 141.566 194.159C139.202 194.159 137.634 196.023 137.634 198.705C137.634 201.386 139.179 203.182 141.702 203.182ZM138.98 197.932C139.071 196.574 140.031 195.364 141.566 195.364C143.02 195.364 143.952 196.455 143.952 197.932H138.98ZM153.015 199.432C153.015 201.068 151.765 201.818 150.765 201.818C149.652 201.818 148.856 201 148.856 199.727V194.273H147.515V199.818C147.515 202.046 148.697 203.114 150.334 203.114C151.652 203.114 152.515 202.409 152.924 201.523H153.015V203H154.356V194.273H153.015V199.432ZM156.972 203H158.313V197.546C158.313 196.267 159.245 195.364 160.29 195.364C161.307 195.364 162.018 196.029 162.018 197.023V203H163.381V197.318C163.381 196.193 164.086 195.364 165.313 195.364C166.268 195.364 167.086 195.869 167.086 197.159V203H168.427V197.159C168.427 195.108 167.324 194.159 165.768 194.159C164.518 194.159 163.603 194.733 163.154 195.636H163.063C162.631 194.705 161.87 194.159 160.722 194.159C159.586 194.159 158.745 194.705 158.381 195.636H158.268V194.273H156.972V203Z" fill="#F2F2F2"/>
<path d="M97.2641 179H107.094V176.465H100.339V172.992H106.561V170.456H100.339V166.99H107.065V164.455H97.2641V179ZM108.956 166.99H113.409V179H116.449V166.99H120.902V164.455H108.956V166.99ZM122.87 179H125.945V172.992H132.188V179H135.256V164.455H132.188V170.456H125.945V164.455H122.87V179Z" fill="white"/>
<path d="M79.8914 184C79.8914 194.988 70.9845 203.895 59.997 203.895C49.0095 203.895 40.1024 194.988 40.1024 184C40.1024 173.013 49.0095 164.105 59.997 164.105C70.9844 164.105 79.8914 173.013 79.8914 184Z" fill="#6374C3"/>
<path d="M59.9331 174.769L59.8102 175.187V187.306L59.9331 187.429L65.5589 184.104L59.9331 174.769Z" fill="white"/>
<path d="M59.9331 174.769L54.3073 184.104L59.9331 187.429V181.547V174.769Z" fill="white"/>
<path d="M59.9326 189.259L59.8633 189.343V193.661L59.9326 193.863L65.5618 185.935L59.9326 189.259Z" fill="white"/>
<path d="M59.9331 193.863V189.259L54.3073 185.935L59.9331 193.863Z" fill="white"/>
<path d="M59.9334 187.43L65.5591 184.105L59.9334 181.548V187.43Z" fill="white"/>
<path d="M54.3073 184.105L59.933 187.43V181.548L54.3073 184.105Z" fill="white"/>
<path d="M225.636 190.455H226.568V189.188C228.954 189.023 230.295 187.614 230.295 185.841C230.295 183.659 228.227 182.955 227.023 182.636L226.568 182.511V178.472C227.773 178.591 228.648 179.239 228.773 180.273H230.136C230.079 178.614 228.625 177.352 226.568 177.216V175.909H225.636V177.233C223.687 177.432 222.227 178.671 222.227 180.455C222.227 182.023 223.364 182.955 225.182 183.477L225.636 183.608V187.909C224.443 187.784 223.466 187.171 223.364 186H221.909C222.04 187.79 223.403 189.04 225.636 189.188V190.455ZM226.568 187.909V183.875L226.614 183.886C227.841 184.227 228.932 184.659 228.932 185.818C228.932 186.96 227.943 187.756 226.568 187.909ZM225.636 182.261C224.773 182.017 223.591 181.54 223.591 180.386C223.591 179.404 224.386 178.654 225.636 178.489V182.261ZM236.499 177.364H235.089L232.18 179.296V180.727L235.021 178.841H235.089V189H236.499V177.364ZM243.481 189.159C245.697 189.159 247.322 187.523 247.322 185.296C247.322 183.04 245.754 181.386 243.618 181.386C242.834 181.386 242.072 181.665 241.595 182.046H241.527L241.936 178.614H246.8V177.364H240.754L240.05 183.091L241.368 183.25C241.851 182.904 242.675 182.654 243.391 182.659C244.874 182.671 245.959 183.796 245.959 185.318C245.959 186.813 244.913 187.909 243.481 187.909C242.288 187.909 241.339 187.142 241.231 186.091H239.868C239.953 187.864 241.481 189.159 243.481 189.159ZM253.443 189.159C255.795 189.188 257.329 187.415 257.329 185.25C257.329 183 255.665 181.386 253.67 181.386C252.472 181.386 251.443 181.972 250.807 182.932H250.716C250.722 180.097 251.824 178.455 253.625 178.455C254.852 178.455 255.591 179.227 255.852 180.273H257.239C256.954 178.466 255.579 177.205 253.625 177.205C251.006 177.205 249.398 179.523 249.398 183.636C249.398 187.938 251.534 189.136 253.443 189.159ZM253.443 187.909C251.983 187.909 250.915 186.665 250.92 185.273C250.926 183.881 252.045 182.636 253.489 182.636C254.915 182.636 255.966 183.807 255.966 185.25C255.966 186.727 254.869 187.909 253.443 187.909ZM260.017 189.091C260.579 189.091 261.04 188.631 261.04 188.068C261.04 187.506 260.579 187.046 260.017 187.046C259.454 187.046 258.994 187.506 258.994 188.068C258.994 188.631 259.454 189.091 260.017 189.091ZM266.791 189.159C269.115 189.159 270.734 187.801 270.746 185.909C270.734 184.438 269.751 183.188 268.496 182.955V182.886C269.587 182.602 270.302 181.534 270.314 180.296C270.302 178.523 268.814 177.205 266.791 177.205C264.746 177.205 263.257 178.523 263.268 180.296C263.257 181.534 263.973 182.602 265.087 182.886V182.955C263.808 183.188 262.825 184.438 262.837 185.909C262.825 187.801 264.445 189.159 266.791 189.159ZM266.791 187.909C265.195 187.909 264.212 187.091 264.223 185.841C264.212 184.529 265.297 183.591 266.791 183.591C268.263 183.591 269.348 184.529 269.359 185.841C269.348 187.091 268.365 187.909 266.791 187.909ZM266.791 182.386C265.518 182.386 264.621 181.591 264.632 180.386C264.621 179.205 265.484 178.432 266.791 178.432C268.075 178.432 268.939 179.205 268.95 180.386C268.939 181.591 268.041 182.386 266.791 182.386ZM276.855 189.159C279.111 189.159 280.787 187.744 280.787 185.841C280.787 184.364 279.912 183.29 278.446 183.046V182.955C279.622 182.597 280.355 181.631 280.355 180.318C280.355 178.671 279.054 177.205 276.901 177.205C274.889 177.205 273.219 178.443 273.151 180.273H274.514C274.565 179.114 275.668 178.432 276.878 178.432C278.162 178.432 278.991 179.21 278.991 180.386C278.991 181.614 278.031 182.409 276.651 182.409H275.719V183.659H276.651C278.418 183.659 279.401 184.557 279.401 185.841C279.401 187.074 278.327 187.909 276.832 187.909C275.486 187.909 274.418 187.216 274.332 186.091H272.901C272.986 187.921 274.599 189.159 276.855 189.159Z" fill="#F2F2F2"/>
<circle opacity="0.1" cx="350" cy="184" r="8" fill="#FF7676"/>
<path d="M353.207 181.93H346.793C346.6 181.93 346.493 182.133 346.612 182.272L349.819 185.99C349.911 186.097 350.088 186.097 350.181 185.99L353.388 182.272C353.507 182.133 353.399 181.93 353.207 181.93Z" fill="#FF7676"/>
<path d="M372.227 182.557H367.136V183.807H372.227V182.557ZM378.359 189.159C380.927 189.159 382.405 186.983 382.405 183.182C382.405 179.409 380.905 177.205 378.359 177.205C375.814 177.205 374.314 179.409 374.314 183.182C374.314 186.983 375.791 189.159 378.359 189.159ZM378.359 187.909C376.666 187.909 375.677 186.21 375.677 183.182C375.677 180.159 376.677 178.432 378.359 178.432C380.041 178.432 381.041 180.159 381.041 183.182C381.041 186.21 380.052 187.909 378.359 187.909ZM385.158 189.091C385.72 189.091 386.18 188.631 386.18 188.068C386.18 187.506 385.72 187.046 385.158 187.046C384.595 187.046 384.135 187.506 384.135 188.068C384.135 188.631 384.595 189.091 385.158 189.091ZM392.159 177.205C389.795 177.176 388.273 178.955 388.273 181.091C388.273 183.341 389.932 184.955 391.932 184.955C393.136 184.955 394.159 184.364 394.795 183.409H394.886C394.886 186.273 393.773 187.909 391.977 187.909C390.75 187.909 390 187.136 389.75 186.068H388.364C388.636 187.909 390.023 189.159 391.977 189.159C394.591 189.159 396.204 186.841 396.204 182.705C396.204 178.432 394.068 177.227 392.159 177.205ZM392.159 178.455C393.614 178.455 394.682 179.705 394.682 181.068C394.682 182.455 393.545 183.705 392.114 183.705C390.682 183.705 389.636 182.546 389.636 181.091C389.636 179.636 390.727 178.455 392.159 178.455ZM404.371 186.818C404.371 188.091 405.166 189.159 406.643 189.159C408.098 189.159 408.893 188.091 408.893 186.818V186.205C408.893 184.932 408.121 183.864 406.643 183.864C405.189 183.864 404.371 184.932 404.371 186.205V186.818ZM398.575 180.159C398.575 181.432 399.371 182.5 400.848 182.5C402.302 182.5 403.098 181.432 403.098 180.159V179.546C403.098 178.273 402.325 177.205 400.848 177.205C399.393 177.205 398.575 178.273 398.575 179.546V180.159ZM399.007 189H400.302L408.302 177.364H407.007L399.007 189ZM405.53 186.205C405.53 185.5 405.848 184.841 406.643 184.841C407.462 184.841 407.734 185.5 407.734 186.205V186.818C407.734 187.523 407.439 188.182 406.643 188.182C405.825 188.182 405.53 187.523 405.53 186.818V186.205ZM399.734 179.546C399.734 178.841 400.052 178.182 400.848 178.182C401.666 178.182 401.939 178.841 401.939 179.546V180.159C401.939 180.864 401.643 181.523 400.848 181.523C400.03 181.523 399.734 180.864 399.734 180.159V179.546Z" fill="#FF7676"/>
<path d="M487.636 190.455H488.568V189.188C490.954 189.023 492.295 187.614 492.295 185.841C492.295 183.659 490.227 182.955 489.023 182.636L488.568 182.511V178.472C489.773 178.591 490.648 179.239 490.773 180.273H492.136C492.079 178.614 490.625 177.352 488.568 177.216V175.909H487.636V177.233C485.687 177.432 484.227 178.671 484.227 180.455C484.227 182.023 485.364 182.955 487.182 183.477L487.636 183.608V187.909C486.443 187.784 485.466 187.171 485.364 186H483.909C484.04 187.79 485.403 189.04 487.636 189.188V190.455ZM488.568 187.909V183.875L488.614 183.886C489.841 184.227 490.932 184.659 490.932 185.818C490.932 186.96 489.943 187.756 488.568 187.909ZM487.636 182.261C486.773 182.017 485.591 181.54 485.591 180.386C485.591 179.404 486.386 178.654 487.636 178.489V182.261ZM498.499 177.364H497.089L494.18 179.296V180.727L497.021 178.841H497.089V189H498.499V177.364ZM505.572 189.159C507.896 189.159 509.516 187.801 509.527 185.909C509.516 184.438 508.533 183.188 507.277 182.955V182.886C508.368 182.602 509.084 181.534 509.095 180.296C509.084 178.523 507.595 177.205 505.572 177.205C503.527 177.205 502.038 178.523 502.05 180.296C502.038 181.534 502.754 182.602 503.868 182.886V182.955C502.589 183.188 501.606 184.438 501.618 185.909C501.606 187.801 503.226 189.159 505.572 189.159ZM505.572 187.909C503.976 187.909 502.993 187.091 503.004 185.841C502.993 184.529 504.078 183.591 505.572 183.591C507.044 183.591 508.129 184.529 508.141 185.841C508.129 187.091 507.146 187.909 505.572 187.909ZM505.572 182.386C504.3 182.386 503.402 181.591 503.413 180.386C503.402 179.205 504.266 178.432 505.572 178.432C506.856 178.432 507.72 179.205 507.731 180.386C507.72 181.591 506.822 182.386 505.572 182.386ZM515.795 177.364H514.386L511.477 179.296V180.727L514.318 178.841H514.386V189H515.795V177.364ZM519.142 189H526.483V187.75H521.074V187.659L523.687 184.864C525.687 182.722 526.278 181.722 526.278 180.432C526.278 178.636 524.824 177.205 522.778 177.205C520.739 177.205 519.187 178.591 519.187 180.636H520.528C520.528 179.313 521.386 178.432 522.733 178.432C523.994 178.432 524.96 179.205 524.96 180.432C524.96 181.506 524.329 182.301 522.983 183.773L519.142 187.977V189ZM532.761 189.159C535.017 189.159 536.693 187.744 536.693 185.841C536.693 184.364 535.818 183.29 534.352 183.046V182.955C535.528 182.597 536.261 181.631 536.261 180.318C536.261 178.671 534.96 177.205 532.807 177.205C530.795 177.205 529.125 178.443 529.057 180.273H530.42C530.472 179.114 531.574 178.432 532.784 178.432C534.068 178.432 534.898 179.21 534.898 180.386C534.898 181.614 533.937 182.409 532.557 182.409H531.625V183.659H532.557C534.324 183.659 535.307 184.557 535.307 185.841C535.307 187.074 534.233 187.909 532.739 187.909C531.392 187.909 530.324 187.216 530.239 186.091H528.807C528.892 187.921 530.506 189.159 532.761 189.159ZM542.653 189.159C544.869 189.159 546.494 187.523 546.494 185.296C546.494 183.04 544.926 181.386 542.79 181.386C542.006 181.386 541.244 181.665 540.767 182.046H540.699L541.108 178.614H545.972V177.364H539.926L539.222 183.091L540.54 183.25C541.023 182.904 541.847 182.654 542.562 182.659C544.045 182.671 545.131 183.796 545.131 185.318C545.131 186.813 544.085 187.909 542.653 187.909C541.46 187.909 540.511 187.142 540.403 186.091H539.04C539.125 187.864 540.653 189.159 542.653 189.159ZM552.547 189.159C555.115 189.159 556.592 186.983 556.592 183.182C556.592 179.409 555.092 177.205 552.547 177.205C550.001 177.205 548.501 179.409 548.501 183.182C548.501 186.983 549.979 189.159 552.547 189.159ZM552.547 187.909C550.854 187.909 549.865 186.21 549.865 183.182C549.865 180.159 550.865 178.432 552.547 178.432C554.229 178.432 555.229 180.159 555.229 183.182C555.229 186.21 554.24 187.909 552.547 187.909Z" fill="#F2F2F2"/>
<path d="M297.636 277.455H298.568V276.188C300.955 276.023 302.295 274.614 302.295 272.841C302.295 270.66 300.227 269.955 299.023 269.637L298.568 269.512V265.472C299.773 265.591 300.648 266.239 300.773 267.273H302.136C302.08 265.614 300.625 264.353 298.568 264.216V262.91H297.636V264.233C295.688 264.432 294.227 265.671 294.227 267.455C294.227 269.023 295.364 269.955 297.182 270.478L297.636 270.608V274.91C296.443 274.785 295.466 274.171 295.364 273H293.909C294.04 274.79 295.403 276.04 297.636 276.188V277.455ZM298.568 274.91V270.875L298.614 270.887C299.841 271.228 300.932 271.66 300.932 272.819C300.932 273.961 299.943 274.756 298.568 274.91ZM297.636 269.262C296.773 269.018 295.591 268.54 295.591 267.387C295.591 266.404 296.386 265.654 297.636 265.489V269.262ZM308.135 276.16C310.459 276.16 312.078 274.802 312.089 272.91C312.078 271.438 311.095 270.188 309.839 269.955V269.887C310.93 269.603 311.646 268.535 311.658 267.296C311.646 265.523 310.158 264.205 308.135 264.205C306.089 264.205 304.601 265.523 304.612 267.296C304.601 268.535 305.317 269.603 306.43 269.887V269.955C305.152 270.188 304.169 271.438 304.18 272.91C304.169 274.802 305.788 276.16 308.135 276.16ZM308.135 274.91C306.538 274.91 305.555 274.091 305.567 272.841C305.555 271.529 306.641 270.591 308.135 270.591C309.607 270.591 310.692 271.529 310.703 272.841C310.692 274.091 309.709 274.91 308.135 274.91ZM308.135 269.387C306.862 269.387 305.964 268.591 305.976 267.387C305.964 266.205 306.828 265.432 308.135 265.432C309.419 265.432 310.283 266.205 310.294 267.387C310.283 268.591 309.385 269.387 308.135 269.387ZM317.903 276.16C320.119 276.16 321.744 274.523 321.744 272.296C321.744 270.04 320.176 268.387 318.04 268.387C317.256 268.387 316.494 268.665 316.017 269.046H315.949L316.358 265.614H321.222V264.364H315.176L314.472 270.091L315.79 270.25C316.273 269.904 317.097 269.654 317.812 269.66C319.295 269.671 320.381 270.796 320.381 272.319C320.381 273.813 319.335 274.91 317.903 274.91C316.71 274.91 315.761 274.143 315.653 273.091H314.29C314.375 274.864 315.903 276.16 317.903 276.16ZM327.933 276.16C330.189 276.16 331.865 274.745 331.865 272.841C331.865 271.364 330.99 270.29 329.524 270.046V269.955C330.7 269.597 331.433 268.631 331.433 267.319C331.433 265.671 330.132 264.205 327.979 264.205C325.967 264.205 324.297 265.444 324.229 267.273H325.592C325.643 266.114 326.746 265.432 327.956 265.432C329.24 265.432 330.07 266.211 330.07 267.387C330.07 268.614 329.109 269.41 327.729 269.41H326.797V270.66H327.729C329.496 270.66 330.479 271.557 330.479 272.841C330.479 274.074 329.405 274.91 327.911 274.91C326.564 274.91 325.496 274.216 325.411 273.091H323.979C324.064 274.921 325.678 276.16 327.933 276.16ZM337.825 276.16C340.041 276.16 341.666 274.523 341.666 272.296C341.666 270.04 340.098 268.387 337.962 268.387C337.178 268.387 336.416 268.665 335.939 269.046H335.871L336.28 265.614H341.143V264.364H335.098L334.393 270.091L335.712 270.25C336.195 269.904 337.018 269.654 337.734 269.66C339.217 269.671 340.303 270.796 340.303 272.319C340.303 273.813 339.257 274.91 337.825 274.91C336.632 274.91 335.683 274.143 335.575 273.091H334.212C334.297 274.864 335.825 276.16 337.825 276.16Z" fill="#F2F2F2"/>
<circle opacity="0.1" cx="422" cy="271" r="8" fill="#8FFFBE"/>
<path d="M425.388 272.729L422.181 269.01C422.089 268.904 421.912 268.904 421.819 269.01L418.612 272.729C418.493 272.868 418.601 273.071 418.793 273.071H425.207C425.399 273.071 425.507 272.868 425.388 272.729Z" fill="#8FFFBE"/>
<path d="M442.636 273.955H443.909V270.841H447.023V269.569H443.909V266.455H442.636V269.569H439.523V270.841H442.636V273.955ZM453.479 276.16C455.803 276.16 457.422 274.802 457.433 272.91C457.422 271.438 456.439 270.188 455.183 269.955V269.887C456.274 269.603 456.99 268.535 457.002 267.296C456.99 265.523 455.502 264.205 453.479 264.205C451.433 264.205 449.945 265.523 449.956 267.296C449.945 268.535 450.661 269.603 451.774 269.887V269.955C450.496 270.188 449.513 271.438 449.524 272.91C449.513 274.802 451.132 276.16 453.479 276.16ZM453.479 274.91C451.882 274.91 450.899 274.091 450.911 272.841C450.899 271.529 451.984 270.591 453.479 270.591C454.95 270.591 456.036 271.529 456.047 272.841C456.036 274.091 455.053 274.91 453.479 274.91ZM453.479 269.387C452.206 269.387 451.308 268.591 451.32 267.387C451.308 266.205 452.172 265.432 453.479 265.432C454.763 265.432 455.627 266.205 455.638 267.387C455.627 268.591 454.729 269.387 453.479 269.387ZM460.252 276.091C460.814 276.091 461.274 275.631 461.274 275.069C461.274 274.506 460.814 274.046 460.252 274.046C459.689 274.046 459.229 274.506 459.229 275.069C459.229 275.631 459.689 276.091 460.252 276.091ZM463.658 276H470.999V274.75H465.59V274.66L468.203 271.864C470.203 269.722 470.794 268.722 470.794 267.432C470.794 265.637 469.34 264.205 467.294 264.205C465.254 264.205 463.703 265.591 463.703 267.637H465.044C465.044 266.313 465.902 265.432 467.249 265.432C468.51 265.432 469.476 266.205 469.476 267.432C469.476 268.506 468.845 269.302 467.499 270.773L463.658 274.978V276ZM479.277 273.819C479.277 275.091 480.073 276.16 481.55 276.16C483.004 276.16 483.8 275.091 483.8 273.819V273.205C483.8 271.932 483.027 270.864 481.55 270.864C480.095 270.864 479.277 271.932 479.277 273.205V273.819ZM473.482 267.16C473.482 268.432 474.277 269.5 475.754 269.5C477.209 269.5 478.004 268.432 478.004 267.16V266.546C478.004 265.273 477.232 264.205 475.754 264.205C474.3 264.205 473.482 265.273 473.482 266.546V267.16ZM473.913 276H475.209L483.209 264.364H481.913L473.913 276ZM480.436 273.205C480.436 272.5 480.754 271.841 481.55 271.841C482.368 271.841 482.641 272.5 482.641 273.205V273.819C482.641 274.523 482.345 275.182 481.55 275.182C480.732 275.182 480.436 274.523 480.436 273.819V273.205ZM474.641 266.546C474.641 265.841 474.959 265.182 475.754 265.182C476.573 265.182 476.845 265.841 476.845 266.546V267.16C476.845 267.864 476.55 268.523 475.754 268.523C474.936 268.523 474.641 267.864 474.641 267.16V266.546Z" fill="#8FFFBE"/>
<path d="M559.637 277.455H560.568V276.188C562.955 276.023 564.296 274.614 564.296 272.841C564.296 270.66 562.227 269.955 561.023 269.637L560.568 269.512V265.472C561.773 265.591 562.648 266.239 562.773 267.273H564.137C564.08 265.614 562.625 264.353 560.568 264.216V262.91H559.637V264.233C557.688 264.432 556.227 265.671 556.227 267.455C556.227 269.023 557.364 269.955 559.182 270.478L559.637 270.608V274.91C558.443 274.785 557.466 274.171 557.364 273H555.909C556.04 274.79 557.404 276.04 559.637 276.188V277.455ZM560.568 274.91V270.875L560.614 270.887C561.841 271.228 562.932 271.66 562.932 272.819C562.932 273.961 561.943 274.756 560.568 274.91ZM559.637 269.262C558.773 269.018 557.591 268.54 557.591 267.387C557.591 266.404 558.387 265.654 559.637 265.489V269.262ZM570.044 276.16C572.26 276.16 573.885 274.523 573.885 272.296C573.885 270.04 572.317 268.387 570.181 268.387C569.396 268.387 568.635 268.665 568.158 269.046H568.09L568.499 265.614H573.362V264.364H567.317L566.612 270.091L567.931 270.25C568.414 269.904 569.237 269.654 569.953 269.66C571.436 269.671 572.521 270.796 572.521 272.319C572.521 273.813 571.476 274.91 570.044 274.91C568.851 274.91 567.902 274.143 567.794 273.091H566.431C566.516 274.864 568.044 276.16 570.044 276.16ZM579.87 276.16C582.193 276.16 583.813 274.802 583.824 272.91C583.813 271.438 582.83 270.188 581.574 269.955V269.887C582.665 269.603 583.381 268.535 583.392 267.296C583.381 265.523 581.892 264.205 579.87 264.205C577.824 264.205 576.335 265.523 576.347 267.296C576.335 268.535 577.051 269.603 578.165 269.887V269.955C576.887 270.188 575.904 271.438 575.915 272.91C575.904 274.802 577.523 276.16 579.87 276.16ZM579.87 274.91C578.273 274.91 577.29 274.091 577.301 272.841C577.29 271.529 578.375 270.591 579.87 270.591C581.341 270.591 582.426 271.529 582.438 272.841C582.426 274.091 581.443 274.91 579.87 274.91ZM579.87 269.387C578.597 269.387 577.699 268.591 577.71 267.387C577.699 266.205 578.563 265.432 579.87 265.432C581.154 265.432 582.017 266.205 582.029 267.387C582.017 268.591 581.12 269.387 579.87 269.387ZM586.002 276H593.343V274.75H587.933V274.66L590.547 271.864C592.547 269.722 593.138 268.722 593.138 267.432C593.138 265.637 591.683 264.205 589.638 264.205C587.598 264.205 586.047 265.591 586.047 267.637H587.388C587.388 266.313 588.246 265.432 589.593 265.432C590.854 265.432 591.82 266.205 591.82 267.432C591.82 268.506 591.189 269.302 589.843 270.773L586.002 274.978V276ZM599.485 276.16C602.053 276.16 603.53 273.983 603.53 270.182C603.53 266.41 602.03 264.205 599.485 264.205C596.939 264.205 595.439 266.41 595.439 270.182C595.439 273.983 596.916 276.16 599.485 276.16ZM599.485 274.91C597.791 274.91 596.803 273.211 596.803 270.182C596.803 267.16 597.803 265.432 599.485 265.432C601.166 265.432 602.166 267.16 602.166 270.182C602.166 273.211 601.178 274.91 599.485 274.91ZM609.621 276.16C611.877 276.16 613.553 274.745 613.553 272.841C613.553 271.364 612.678 270.29 611.212 270.046V269.955C612.388 269.597 613.121 268.631 613.121 267.319C613.121 265.671 611.82 264.205 609.666 264.205C607.655 264.205 605.985 265.444 605.916 267.273H607.28C607.331 266.114 608.433 265.432 609.644 265.432C610.928 265.432 611.757 266.211 611.757 267.387C611.757 268.614 610.797 269.41 609.416 269.41H608.485V270.66H609.416C611.183 270.66 612.166 271.557 612.166 272.841C612.166 274.074 611.093 274.91 609.598 274.91C608.252 274.91 607.183 274.216 607.098 273.091H605.666C605.752 274.921 607.365 276.16 609.621 276.16ZM619.581 264.205C617.218 264.177 615.695 265.955 615.695 268.091C615.695 270.341 617.354 271.955 619.354 271.955C620.558 271.955 621.581 271.364 622.218 270.41H622.308C622.308 273.273 621.195 274.91 619.399 274.91C618.172 274.91 617.422 274.137 617.172 273.069H615.786C616.058 274.91 617.445 276.16 619.399 276.16C622.013 276.16 623.627 273.841 623.627 269.705C623.627 265.432 621.49 264.228 619.581 264.205ZM619.581 265.455C621.036 265.455 622.104 266.705 622.104 268.069C622.104 269.455 620.968 270.705 619.536 270.705C618.104 270.705 617.058 269.546 617.058 268.091C617.058 266.637 618.149 265.455 619.581 265.455ZM629.566 264.205C627.202 264.177 625.679 265.955 625.679 268.091C625.679 270.341 627.338 271.955 629.338 271.955C630.543 271.955 631.566 271.364 632.202 270.41H632.293C632.293 273.273 631.179 274.91 629.384 274.91C628.156 274.91 627.406 274.137 627.156 273.069H625.77C626.043 274.91 627.429 276.16 629.384 276.16C631.997 276.16 633.611 273.841 633.611 269.705C633.611 265.432 631.475 264.228 629.566 264.205ZM629.566 265.455C631.02 265.455 632.088 266.705 632.088 268.069C632.088 269.455 630.952 270.705 629.52 270.705C628.088 270.705 627.043 269.546 627.043 268.091C627.043 266.637 628.134 265.455 629.566 265.455Z" fill="#F2F2F2"/>
<path d="M169.409 290H176.227V288.75H170.818V278.364H169.409V290ZM178.387 290H179.728V281.273H178.387V290ZM179.069 279.819C179.592 279.819 180.024 279.41 180.024 278.91C180.024 278.41 179.592 278 179.069 278C178.546 278 178.115 278.41 178.115 278.91C178.115 279.41 178.546 279.819 179.069 279.819ZM186.14 281.273H184.276V279.182H182.935V281.273H181.617V282.41H182.935V287.864C182.935 289.387 184.162 290.114 185.299 290.114C185.799 290.114 186.117 290.023 186.299 289.955L186.026 288.75C185.912 288.773 185.731 288.819 185.435 288.819C184.844 288.819 184.276 288.637 184.276 287.5V282.41H186.14V281.273ZM191.882 290.182C193.655 290.182 194.95 289.296 195.359 287.978L194.064 287.614C193.723 288.523 192.933 288.978 191.882 288.978C190.308 288.978 189.223 287.961 189.16 286.091H195.496V285.523C195.496 282.273 193.564 281.16 191.746 281.16C189.382 281.16 187.814 283.023 187.814 285.705C187.814 288.387 189.359 290.182 191.882 290.182ZM189.16 284.932C189.251 283.574 190.212 282.364 191.746 282.364C193.2 282.364 194.132 283.455 194.132 284.932H189.16ZM201.241 290.182C203.173 290.182 204.445 289 204.673 287.455H203.332C203.082 288.41 202.286 288.978 201.241 288.978C199.65 288.978 198.627 287.66 198.627 285.637C198.627 283.66 199.673 282.364 201.241 282.364C202.423 282.364 203.127 283.091 203.332 283.887H204.673C204.445 282.25 203.059 281.16 201.218 281.16C198.854 281.16 197.286 283.023 197.286 285.682C197.286 288.296 198.786 290.182 201.241 290.182ZM210.338 290.182C212.702 290.182 214.293 288.387 214.293 285.682C214.293 282.955 212.702 281.16 210.338 281.16C207.975 281.16 206.384 282.955 206.384 285.682C206.384 288.387 207.975 290.182 210.338 290.182ZM210.338 288.978C208.543 288.978 207.725 287.432 207.725 285.682C207.725 283.932 208.543 282.364 210.338 282.364C212.134 282.364 212.952 283.932 212.952 285.682C212.952 287.432 212.134 288.978 210.338 288.978ZM216.5 290H217.841V281.273H216.5V290ZM217.182 279.819C217.704 279.819 218.136 279.41 218.136 278.91C218.136 278.41 217.704 278 217.182 278C216.659 278 216.227 278.41 216.227 278.91C216.227 279.41 216.659 279.819 217.182 279.819ZM221.798 284.75C221.798 283.228 222.741 282.364 224.025 282.364C225.269 282.364 226.025 283.177 226.025 284.546V290H227.366V284.455C227.366 282.228 226.178 281.16 224.411 281.16C223.093 281.16 222.275 281.75 221.866 282.637H221.752V281.273H220.457V290H221.798V284.75Z" fill="#F2F2F2"/>
<path d="M169.264 266H178.575V263.465H172.339V251.455H169.264V266ZM178.241 253.991H182.695V266H185.734V253.991H190.188V251.455H178.241V253.991ZM204.344 256.547C203.939 253.188 201.397 251.256 198.03 251.256C194.188 251.256 191.255 253.969 191.255 258.728C191.255 263.472 194.138 266.199 198.03 266.199C201.759 266.199 204.01 263.721 204.344 261.043L201.233 261.029C200.942 262.584 199.721 263.479 198.08 263.479C195.871 263.479 194.373 261.839 194.373 258.728C194.373 255.702 195.85 253.976 198.101 253.976C199.784 253.976 200.999 254.949 201.233 256.547H204.344Z" fill="white"/>
<path d="M151.891 271.001C151.891 281.988 142.984 290.895 131.997 290.895C121.009 290.895 112.102 281.988 112.102 271.001C112.102 260.013 121.009 251.106 131.997 251.106C142.984 251.106 151.891 260.013 151.891 271.001Z" fill="#59C19C"/>
<path d="M131.301 274.348L132.194 270.987L134.307 270.215L134.833 268.24L134.815 268.191L132.735 268.951L134.233 263.308H129.983L128.023 270.672L126.387 271.27L125.846 273.306L127.481 272.709L126.326 277.049H137.638L138.363 274.348H131.301Z" fill="white"/>
<defs>
<filter id="filter0_b" x="68.0001" y="-4" width="618" height="342" filterUnits="userSpaceOnUse" color-interpolation-filters="sRGB">
<feFlood flood-opacity="0" result="BackgroundImageFix"/>
<feGaussianBlur in="BackgroundImage" stdDeviation="2"/>
<feComposite in2="SourceAlpha" operator="in" result="effect1_backgroundBlur"/>
<feBlend mode="normal" in="SourceGraphic" in2="effect1_backgroundBlur" result="shape"/>
</filter>
<linearGradient id="paint0_linear" x1="131.989" y1="75.9906" x2="131.989" y2="115.996" gradientUnits="userSpaceOnUse">
<stop stop-color="#F9AA4B"/>
<stop offset="1" stop-color="#F7931A"/>
</linearGradient>
<clipPath id="clip0">
<rect width="40" height="40" fill="white" transform="translate(112 76.0001)"/>
</clipPath>
</defs>
</svg>
